# xmcd
#
# Track frame offsets:
#	150
#	21314
#	38831
#	53763
#	71273
#	88936
#	107258
#	126578
#	142205
#	156179
#	172709
#	193898
#	213303
#	226870
#	244855
#	262577
#	281205
#	300352
#
# Disc length: 4208 seconds
#
# Revision: 1
# Processed by: cddbd v1.5.2PL0 Copyright (c) Steve Scherf et al.
# Submitted via: audiograbber 1.83.01
#
DISCID=f7106e12
DTITLE=Hunter and Suzy Owens - Honkytonk Angels
DYEAR=2002
DGENRE=Country
TTITLE0=Nashville
TTITLE1=Hold Me Tonight
TTITLE2=My Desire
TTITLE3=Dreaming About Texas
TTITLE4=Late Night Radio
TTITLE5=Things I Did Not Know
TTITLE6=Time Will Tell
TTITLE7=Hungry
TTITLE8=The Letter
TTITLE9=Someone's Been Walking in My Shoes
TTITLE10=Edge of the American Dream
TTITLE11=Head of the Table
TTITLE12=She Drinks to Remember
TTITLE13=Toe the Line
TTITLE14=Better Life Somewhere
TTITLE15=Honkytonk Angels
TTITLE16=Fuck That Truck
TTITLE17=Play Me a Honkytonk Song
EXTD=
EXTT0=
EXTT1=
EXTT2=
EXTT3=
EXTT4=
EXTT5=
EXTT6=
EXTT7=
EXTT8=
EXTT9=
EXTT10=
EXTT11=
EXTT12=
EXTT13=
EXTT14=
EXTT15=
EXTT16=
EXTT17=
PLAYORDER=
